<svg width="24" height="24" viewBox="0 0 24 24" fill="none" xmlns="http://www.w3.org/2000/svg">
<g clip-path="url(#clip0_508_5290)">
<path d="M23.7447 9.753L12.3684 1.42345C12.149 1.26286 11.851 1.26286 11.6317 1.42345L0.255231 9.753C-0.022644 9.95649 -0.083019 10.3467 0.120465 10.6245C0.323949 10.9024 0.714183 10.9627 0.992011 10.7593L12 2.69944L23.008 10.7593C23.119 10.8406 23.248 10.8797 23.3758 10.8797C23.5678 10.8797 23.7573 10.7914 23.8795 10.6245C24.083 10.3467 24.0226 9.95649 23.7447 9.753Z" fill="black"/>
<path d="M20.7303 10.9005C20.3859 10.9005 20.1067 11.1796 20.1067 11.524V21.4498H15.1182V16.0317C15.1182 14.3123 13.7193 12.9135 12 12.9135C10.2808 12.9135 8.88192 14.3124 8.88192 16.0317V21.4498H3.89334V11.5241C3.89334 11.1797 3.61411 10.9005 3.26976 10.9005C2.92542 10.9005 2.64619 11.1797 2.64619 11.5241V22.0734C2.64619 22.4178 2.92542 22.697 3.26976 22.697H9.5055C9.83344 22.697 10.1018 22.4437 10.1266 22.122C10.1281 22.1074 10.1291 22.0915 10.1291 22.0734V16.0317C10.1291 15 10.9684 14.1607 12 14.1607C13.0317 14.1607 13.871 15.0001 13.871 16.0317V22.0734C13.871 22.0914 13.872 22.107 13.8735 22.1214C13.898 22.4433 14.1665 22.697 14.4946 22.697H20.7303C21.0747 22.697 21.3539 22.4178 21.3539 22.0734V11.5241C21.3539 11.1796 21.0747 10.9005 20.7303 10.9005Z" fill="black"/>
</g>
<defs>
<clipPath id="clip0_508_5290">
<rect width="24" height="24" fill="white"/>
</clipPath>
</defs>
</svg>
