<svg width="32" height="32" viewBox="0 0 32 32" fill="none" xmlns="http://www.w3.org/2000/svg">
<path d="M17.7249 0C18.1959 0 18.616 0.292891 18.7743 0.731569L19.9034 3.86193C20.3089 3.96242 20.6573 4.06449 20.9508 4.16948C21.2723 4.28448 21.6865 4.45986 22.1995 4.69738L24.8296 3.30555C25.2706 3.07215 25.8149 3.15801 26.1607 3.51551L28.4736 5.90736C28.7806 6.22482 28.8675 6.69225 28.6948 7.09692L27.4606 9.98938C27.6662 10.3648 27.8303 10.6857 27.9538 10.9545C28.0886 11.248 28.2541 11.6519 28.4527 12.1707L31.3285 13.402C31.7595 13.5865 32.0272 14.0184 31.9978 14.4819L31.7871 17.8019C31.7592 18.2408 31.4701 18.6212 31.0516 18.7698L28.3279 19.7368C28.25 20.1129 28.1686 20.4358 28.0824 20.708C27.9813 21.0268 27.8225 21.4368 27.6043 21.9449L28.9735 24.971C29.1707 25.4067 29.0616 25.9185 28.7033 26.2384L26.1022 28.5615C25.7532 28.8732 25.2438 28.9346 24.8292 28.715L22.1475 27.2946C21.6764 27.54 21.2453 27.7358 20.8519 27.8821C20.5004 28.0128 20.1096 28.1588 19.6796 28.32L18.6399 31.2004C18.4848 31.6304 18.0775 31.9211 17.6159 31.9315L14.5748 32C14.1008 32.0103 13.6719 31.7232 13.5059 31.284L12.2802 28.0411C11.7171 27.8442 11.3058 27.6912 11.0384 27.5786C10.7849 27.4718 10.4567 27.3156 10.0489 27.1082L7.01105 28.4079C6.60124 28.5832 6.12515 28.4997 5.80135 28.1957L3.55371 26.0852C3.20949 25.762 3.11018 25.2587 3.30631 24.8313L4.61316 21.9832C4.41628 21.5968 4.25531 21.2542 4.12987 20.9536C3.99772 20.637 3.83779 20.2057 3.64815 19.6558L0.786737 18.7859C0.304755 18.6394 -0.0176137 18.1911 0.000745511 17.6928L0.113999 14.6193C0.129004 14.2121 0.370111 13.8463 0.740843 13.6683L3.74555 12.226C3.88416 11.7157 4.00618 11.3187 4.11465 11.0284C4.22206 10.7409 4.38869 10.3638 4.61671 9.89029L3.31196 7.13595C3.109 6.70749 3.20539 6.19874 3.55145 5.87197L5.79909 3.74964C6.11904 3.44753 6.58946 3.36121 6.99773 3.5297L10.0354 4.78324C10.3718 4.5615 10.676 4.37853 10.9499 4.23378C11.279 4.05996 11.7161 3.8771 12.2694 3.67963L13.3246 0.733845C13.4822 0.293989 13.9029 0 14.3749 0H17.7249ZM16.9393 2.20329H15.1623L14.1912 4.91414C14.0768 5.23339 13.8203 5.48288 13.4956 5.59069C12.7986 5.82208 12.2944 6.02155 12.0001 6.17705C11.6877 6.34211 11.2904 6.59323 10.8148 6.9286C10.5011 7.14974 10.0942 7.19501 9.73872 7.04831L6.81146 5.84031L5.66962 6.91849L6.85999 9.43138C7.0036 9.73453 7 10.0858 6.85023 10.386C6.53016 11.0276 6.31343 11.5015 6.20495 11.7918C6.09656 12.082 5.95068 12.5785 5.774 13.2665C5.69318 13.5812 5.47609 13.8446 5.18069 13.9864L2.31649 15.3612L2.25875 16.9284L4.85008 17.7162C5.19518 17.8211 5.46747 18.0848 5.58065 18.4238C5.83731 19.1925 6.04178 19.7586 6.18973 20.1131C6.33494 20.4611 6.55068 20.9038 6.83584 21.4367C6.99714 21.7382 7.00815 22.0965 6.86564 22.4071L5.66323 25.0275L6.8019 26.0967L9.65202 24.8773C9.96287 24.7443 10.318 24.7584 10.6172 24.9155C11.2016 25.2224 11.6372 25.4359 11.9117 25.5515C12.1913 25.6693 12.7278 25.8646 13.505 26.1304C13.8191 26.2377 14.0683 26.4781 14.1846 26.7859L15.316 29.7792L16.7989 29.746L17.7538 27.1003C17.8635 26.7964 18.1024 26.5553 18.4075 26.4407C19.0333 26.2056 19.5866 25.9987 20.0675 25.8198C20.4864 25.6641 20.9957 25.4189 21.5895 25.0843C21.9224 24.8968 22.3295 24.8915 22.6672 25.0704L25.1903 26.4068L26.6088 25.14L25.3698 22.4018C25.2411 22.1173 25.2403 21.7921 25.3676 21.507C25.6593 20.8537 25.8566 20.3628 25.956 20.0492C26.0532 19.7425 26.1531 19.2995 26.2513 18.7288C26.3188 18.3368 26.5947 18.0112 26.9732 17.8768L29.609 16.9409L29.7248 15.1163L27.132 14.0063C26.8525 13.8866 26.6346 13.6589 26.5293 13.3763C26.2717 12.6853 26.0687 12.1787 25.9249 11.8657C25.7829 11.5566 25.5581 11.1307 25.2528 10.5948C25.0837 10.2977 25.0631 9.93998 25.1971 9.6259L26.3573 6.90705L25.1349 5.64298L22.7538 6.90304C22.4388 7.06972 22.0622 7.07696 21.7409 6.92252C21.0475 6.58919 20.5267 6.36081 20.1927 6.24135C19.8667 6.12473 19.4068 6.00092 18.8202 5.87414C18.4446 5.79296 18.1379 5.52604 18.0087 5.16798L16.9393 2.20329ZM16.0379 9.02639C19.9351 9.02639 23.0944 12.1501 23.0944 16.0035C23.0944 19.8568 19.9351 22.9805 16.0379 22.9805C12.1408 22.9805 8.98148 19.8568 8.98148 16.0035C8.98148 12.1501 12.1408 9.02639 16.0379 9.02639ZM16.0379 11.2297C13.3714 11.2297 11.2098 13.367 11.2098 16.0035C11.2098 18.64 13.3714 20.7773 16.0379 20.7773C18.7044 20.7773 20.866 18.64 20.866 16.0035C20.866 13.367 18.7044 11.2297 16.0379 11.2297Z" fill="#555555"/>
</svg>
