<svg width="32" height="32" viewBox="0 0 32 32" fill="none" xmlns="http://www.w3.org/2000/svg">
<path d="M22.5844 9.61316H9.41564C9.05152 9.61316 8.7572 9.90748 8.7572 10.2716V31.3416C8.7572 31.7057 9.05152 32 9.41564 32H22.5844C22.9485 32 23.2428 31.7057 23.2428 31.3416V10.2716C23.2428 9.90748 22.9485 9.61316 22.5844 9.61316ZM21.9259 30.6831H10.0741V10.93H21.9259V30.6831Z" fill="black"/>
<path d="M12.0494 16.1975H14.6831C15.0472 16.1975 15.3416 15.9032 15.3416 15.5391V12.9053C15.3416 12.5412 15.0472 12.2469 14.6831 12.2469H12.0494C11.6853 12.2469 11.3909 12.5412 11.3909 12.9053V15.5391C11.3909 15.9032 11.6853 16.1975 12.0494 16.1975ZM12.7078 13.5638H14.0247V14.8806H12.7078V13.5638V13.5638Z" fill="black"/>
<path d="M17.3169 16.1975H19.9506C20.3147 16.1975 20.6091 15.9032 20.6091 15.5391V12.9053C20.6091 12.5412 20.3147 12.2469 19.9506 12.2469H17.3169C16.9528 12.2469 16.6584 12.5412 16.6584 12.9053V15.5391C16.6584 15.9032 16.9528 16.1975 17.3169 16.1975ZM17.9753 13.5638H19.2922V14.8806H17.9753V13.5638Z" fill="black"/>
<path d="M17.3169 21.465H19.9506C20.3147 21.465 20.6091 21.1707 20.6091 20.8066V18.1728C20.6091 17.8087 20.3147 17.5144 19.9506 17.5144H17.3169C16.9528 17.5144 16.6584 17.8087 16.6584 18.1728V20.8066C16.6584 21.1707 16.9528 21.465 17.3169 21.465ZM17.9753 18.8313H19.2922V20.1482H17.9753V18.8313Z" fill="black"/>
<path d="M12.0494 21.465H14.6831C15.0472 21.465 15.3416 21.1707 15.3416 20.8066V18.1728C15.3416 17.8087 15.0472 17.5144 14.6831 17.5144H12.0494C11.6853 17.5144 11.3909 17.8087 11.3909 18.1728V20.8066C11.3909 21.1707 11.6853 21.465 12.0494 21.465ZM12.7078 18.8313H14.0247V20.1482H12.7078V18.8313V18.8313Z" fill="black"/>
<path d="M17.3169 26.7325H19.9506C20.3147 26.7325 20.6091 26.4382 20.6091 26.0741V23.4404C20.6091 23.0762 20.3147 22.7819 19.9506 22.7819H17.3169C16.9528 22.7819 16.6584 23.0762 16.6584 23.4404V26.0741C16.6584 26.4382 16.9528 26.7325 17.3169 26.7325ZM17.9753 24.0988H19.2922V25.4157H17.9753V24.0988Z" fill="black"/>
<path d="M12.0494 26.7325H14.6831C15.0472 26.7325 15.3416 26.4382 15.3416 26.0741V23.4404C15.3416 23.0762 15.0472 22.7819 14.6831 22.7819H12.0494C11.6853 22.7819 11.3909 23.0762 11.3909 23.4404V26.0741C11.3909 26.4382 11.6853 26.7325 12.0494 26.7325ZM12.7078 24.0988H14.0247V25.4157H12.7078V24.0988V24.0988Z" fill="black"/>
<path d="M13.9786 6.23338C13.7212 6.49078 13.7212 6.90633 13.9786 7.16437C14.2367 7.42176 14.6522 7.42176 14.9096 7.16437C15.68 6.39399 16.9337 6.39399 17.7039 7.16437C17.8323 7.29274 18.0009 7.35731 18.1694 7.35731C18.3379 7.35731 18.5065 7.29274 18.6349 7.16437C18.8923 6.90622 18.8923 6.49078 18.6349 6.23338C17.3518 4.95012 15.2618 4.95012 13.9786 6.23338Z" fill="black"/>
<path d="M20.4971 5.30239C20.7545 5.04499 20.7545 4.6288 20.4971 4.3714C19.3784 3.25206 17.8897 2.63513 16.3068 2.63513C14.7233 2.63513 13.2352 3.25206 12.1165 4.3714C11.8591 4.6288 11.8591 5.04563 12.1165 5.30239C12.2449 5.43076 12.4135 5.49533 12.582 5.49533C12.7499 5.49533 12.9185 5.43076 13.0475 5.30239C13.918 4.43191 15.0755 3.9519 16.3068 3.9519C17.5381 3.9519 18.6956 4.43191 19.5661 5.30239C19.8235 5.55978 20.2397 5.55978 20.4971 5.30239Z" fill="black"/>
<path d="M11.1855 3.43966C12.5531 2.07146 14.3724 1.31751 16.3068 1.31751C18.2412 1.31751 20.0605 2.07146 21.4281 3.43966C21.5565 3.56804 21.7251 3.6326 21.8936 3.6326C22.0621 3.6326 22.2307 3.56804 22.3584 3.43966C22.6166 3.18152 22.6166 2.76671 22.3584 2.50867C20.7428 0.891503 18.5922 0 16.3068 0C14.0214 0 11.871 0.891503 10.2544 2.50867C9.99703 2.76682 9.99703 3.18162 10.2544 3.43966C10.5126 3.69781 10.928 3.69781 11.1855 3.43966Z" fill="black"/>
</svg>
