<svg width="32" height="32" viewBox="0 0 32 32" fill="none" xmlns="http://www.w3.org/2000/svg">
<path d="M8 3.33335C8 2.96517 8.29847 2.66669 8.66667 2.66669C9.03487 2.66669 9.33333 2.96517 9.33333 3.33335V7.33335C9.33333 7.70155 9.03487 8.00002 8.66667 8.00002C8.29847 8.00002 8 7.70155 8 7.33335V3.33335Z" fill="#333333"/>
<path d="M18.6667 3.33335C18.6667 2.96517 18.9651 2.66669 19.3333 2.66669C19.7015 2.66669 20 2.96517 20 3.33335V7.33335C20 7.70155 19.7015 8.00002 19.3333 8.00002C18.9651 8.00002 18.6667 7.70155 18.6667 7.33335V3.33335Z" fill="#333333"/>
<path fill-rule="evenodd" clip-rule="evenodd" d="M9.33333 15.3333H8V16.6667H9.33333V15.3333ZM8 14C7.2636 14 6.66666 14.5969 6.66666 15.3333V16.6667C6.66666 17.4031 7.2636 18 8 18H9.33333C10.0697 18 10.6667 17.4031 10.6667 16.6667V15.3333C10.6667 14.5969 10.0697 14 9.33333 14H8Z" fill="#333333"/>
<path fill-rule="evenodd" clip-rule="evenodd" d="M14.6667 15.3333H13.3333V16.6667H14.6667V15.3333ZM13.3333 14C12.5969 14 12 14.5969 12 15.3333V16.6667C12 17.4031 12.5969 18 13.3333 18H14.6667C15.4031 18 16 17.4031 16 16.6667V15.3333C16 14.5969 15.4031 14 14.6667 14H13.3333Z" fill="#333333"/>
<path fill-rule="evenodd" clip-rule="evenodd" d="M20 15.3333H18.6667V16.6667H20V15.3333ZM18.6667 14C17.9303 14 17.3333 14.5969 17.3333 15.3333V16.6667C17.3333 17.4031 17.9303 18 18.6667 18H20C20.7364 18 21.3333 17.4031 21.3333 16.6667V15.3333C21.3333 14.5969 20.7364 14 20 14H18.6667Z" fill="#333333"/>
<path fill-rule="evenodd" clip-rule="evenodd" d="M9.33333 20.6666H8V22H9.33333V20.6666ZM8 19.3333C7.2636 19.3333 6.66666 19.9302 6.66666 20.6666V22C6.66666 22.7364 7.2636 23.3333 8 23.3333H9.33333C10.0697 23.3333 10.6667 22.7364 10.6667 22V20.6666C10.6667 19.9302 10.0697 19.3333 9.33333 19.3333H8Z" fill="#333333"/>
<path fill-rule="evenodd" clip-rule="evenodd" d="M14.6667 20.6666H13.3333V22H14.6667V20.6666ZM13.3333 19.3333C12.5969 19.3333 12 19.9302 12 20.6666V22C12 22.7364 12.5969 23.3333 13.3333 23.3333H14.6667C15.4031 23.3333 16 22.7364 16 22V20.6666C16 19.9302 15.4031 19.3333 14.6667 19.3333H13.3333Z" fill="#333333"/>
<path fill-rule="evenodd" clip-rule="evenodd" d="M6 6.66665H22C22.7364 6.66665 23.3333 7.26358 23.3333 7.99998V18.6666C23.7937 18.6666 24.2405 18.725 24.6667 18.8346V7.99998C24.6667 6.52722 23.4727 5.33331 22 5.33331H6C4.52724 5.33331 3.33334 6.52722 3.33334 7.99998V24C3.33334 25.4727 4.52724 26.6666 6 26.6666H18.7135C18.4748 26.254 18.2898 25.8063 18.168 25.3333H6C5.26362 25.3333 4.66667 24.7364 4.66667 24V7.99998C4.66667 7.26358 5.26362 6.66665 6 6.66665Z" fill="#333333"/>
<path fill-rule="evenodd" clip-rule="evenodd" d="M24 12.6666H4V11.3333H24V12.6666Z" fill="#333333"/>
<path fill-rule="evenodd" clip-rule="evenodd" d="M23.3333 28C25.5425 28 27.3333 26.2092 27.3333 24C27.3333 21.7909 25.5425 20 23.3333 20C21.1242 20 19.3333 21.7909 19.3333 24C19.3333 26.2092 21.1242 28 23.3333 28ZM23.3333 29.3334C26.2789 29.3334 28.6667 26.9456 28.6667 24C28.6667 21.0545 26.2789 18.6667 23.3333 18.6667C20.3878 18.6667 18 21.0545 18 24C18 26.9456 20.3878 29.3334 23.3333 29.3334Z" fill="#333333"/>
<path fill-rule="evenodd" clip-rule="evenodd" d="M23.3333 20.7858C23.7015 20.7858 24 21.0843 24 21.4525V24.3179L25.6343 25.4524C25.9368 25.6623 26.0118 26.0777 25.8018 26.3802C25.5919 26.6826 25.1765 26.7576 24.874 26.5477L22.6667 25.0155V21.4525C22.6667 21.0843 22.9651 20.7858 23.3333 20.7858Z" fill="#333333"/>
</svg>
